<?xml version="1.0" encoding="UTF-8" standalone="no"?>
<!-- Created with Inkscape (http://www.inkscape.org/) -->

<svg
   width="64.369347mm"
   height="82.629204mm"
   viewBox="0 0 64.369347 82.629204"
   version="1.1"
   id="svg1"
   xml:space="preserve"
   inkscape:version="1.4 (e7c3feb100, 2024-10-09)"
   sodipodi:docname="Remy.svg"
   xmlns:inkscape="http://www.inkscape.org/namespaces/inkscape"
   xmlns:sodipodi="http://sodipodi.sourceforge.net/DTD/sodipodi-0.dtd"
   xmlns="http://www.w3.org/2000/svg"
   xmlns:svg="http://www.w3.org/2000/svg"><sodipodi:namedview
     id="namedview1"
     pagecolor="#ffffff"
     bordercolor="#000000"
     borderopacity="0.25"
     inkscape:showpageshadow="2"
     inkscape:pageopacity="0.0"
     inkscape:pagecheckerboard="0"
     inkscape:deskcolor="#d1d1d1"
     inkscape:document-units="mm"
     inkscape:zoom="2.0157702"
     inkscape:cx="117.57293"
     inkscape:cy="178.0957"
     inkscape:window-width="1920"
     inkscape:window-height="1011"
     inkscape:window-x="0"
     inkscape:window-y="0"
     inkscape:window-maximized="1"
     inkscape:current-layer="layer1" /><defs
     id="defs1" /><g
     inkscape:label="Layer 1"
     inkscape:groupmode="layer"
     id="layer1"
     transform="translate(-70.806605,-71.948413)"><path
       style="fill:#1a1a1a;stroke:none"
       d="m 102.52156,154.20736 c -4.22325,-0.32447 -4.50261,-0.38327 -8.56575,-1.8029 -3.32355,-1.16122 -4.51075,-1.71057 -5.68854,-2.63221 -1.80955,-1.41602 -6.383214,-7.20069 -6.383214,-8.07335 0,-0.33681 -0.09355,-0.55457 -0.207886,-0.4839 -0.114338,0.0707 -0.207887,-0.10891 -0.207887,-0.39904 0,-0.46131 0.03805,-0.47548 0.303201,-0.11287 0.16676,0.22806 0.545227,0.41465 0.841038,0.41465 0.50238,0 1.005749,0.64637 0.893445,1.14727 -0.02728,0.12167 0.187999,0.28335 0.478399,0.35929 0.290399,0.076 0.599496,0.36335 0.686882,0.63868 0.08739,0.27533 0.263298,0.5006 0.390914,0.5006 0.127616,0 0.68514,0.42141 1.238941,0.93647 0.553797,0.51506 1.304567,1.16914 1.668367,1.45353 2.31093,1.80643 2.7656,2.10791 3.17899,2.10791 0.25321,0 0.60861,0.1786 0.78976,0.39688 0.53131,0.64018 2.11667,0.4325 2.11667,-0.27728 0,-0.59688 0.47648,-0.6896 1.31515,-0.2559 0.45471,0.23514 0.80152,0.29706 0.80152,0.1431 0,-0.14926 0.12609,-0.27138 0.2802,-0.27138 0.1541,0 0.21378,0.10746 0.13261,0.2388 -0.0812,0.13135 0.23631,0.48187 0.70552,0.77896 0.60817,0.38507 0.90735,0.45237 1.04206,0.2344 0.12564,-0.20329 0.38229,-0.06 0.76593,0.42776 0.31763,0.4038 0.73961,0.67109 0.93882,0.59465 0.19901,-0.0764 0.33351,-0.007 0.29887,0.15446 -0.079,0.36812 2.78247,1.53519 4.08777,1.6672 0.63116,0.0638 1.08817,-0.0368 1.29412,-0.28496 0.18003,-0.21692 0.53211,-0.3158 0.8102,-0.22754 0.29126,0.0924 0.49181,0.0277 0.49181,-0.15871 0,-0.21338 0.10657,-0.23149 0.33073,-0.0562 0.55536,0.43423 2.03027,0.84677 2.17723,0.60899 0.0761,-0.12317 0.37641,-0.1617 0.66731,-0.0856 0.30732,0.0804 0.5289,0.008 0.5289,-0.17275 0,-0.17108 0.11906,-0.23747 0.26458,-0.14753 0.14552,0.0899 0.26459,-0.0141 0.26459,-0.23114 0,-0.21707 0.23002,-0.46767 0.51115,-0.5569 0.28114,-0.0892 0.63904,-0.4842 0.79534,-0.87772 l 0.28417,-0.71549 -0.13891,0.7276 c -0.078,0.40863 -0.0207,0.72761 0.13071,0.72761 0.35244,0 0.35799,-0.0638 0.259,-2.97703 -0.0383,-1.12758 0.2622,-1.78548 0.81559,-1.78548 0.42339,0 0.48088,0.13857 0.35677,0.8599 -0.11269,0.65493 -0.0806,0.7653 0.13485,0.46302 0.15554,-0.21828 0.28463,-0.28482 0.28686,-0.14787 0.002,0.13696 0.15743,0.0393 0.34489,-0.21711 0.18746,-0.25637 0.45535,-0.44484 0.59531,-0.41883 0.13996,0.026 0.51728,-0.0377 0.83848,-0.14152 0.53423,-0.17271 0.87214,-0.83237 1.22015,-2.38196 0.10919,-0.48621 0.12133,-0.48211 0.14953,0.0505 0.042,0.79415 0.56219,1.05602 0.74082,0.37297 0.0799,-0.30569 0.25051,-0.55579 0.37906,-0.55579 0.12855,0 0.23373,-0.1786 0.23373,-0.39688 0,-0.21828 0.16401,-0.39687 0.36448,-0.39687 0.20046,0 0.51269,-0.1786 0.69385,-0.39688 0.18116,-0.21828 0.49837,-0.39687 0.70492,-0.39687 0.20655,0 0.63114,-0.23813 0.94353,-0.52917 0.78,-0.72668 0.99738,-0.66561 0.99738,0.2802 0,0.49926 0.10673,0.7434 0.27855,0.63721 0.15321,-0.0947 0.22883,-0.31007 0.16805,-0.47863 -0.1472,-0.40826 0.3159,-1.28308 0.58965,-1.11389 0.45095,0.2787 1.14509,-0.88097 1.02344,-1.70981 -0.085,-0.57912 0.008,-0.88676 0.31762,-1.05255 0.24074,-0.12884 0.6003,-0.72691 0.79902,-1.32904 0.31006,-0.93951 0.30745,-1.13058 -0.0185,-1.34717 -0.27086,-0.18002 -0.18757,-0.20806 0.29047,-0.0978 0.54652,0.12607 0.67796,0.0519 0.71214,-0.40176 0.0323,-0.42929 -0.0703,-0.52074 -0.44952,-0.40039 -0.60181,0.191 -0.99889,-0.33522 -0.42044,-0.55719 0.59514,-0.22838 0.50934,-0.63128 -0.13442,-0.63128 -0.49711,0 -0.5096,-0.0385 -0.13433,-0.41375 0.22756,-0.22756 0.53372,-0.33959 0.68036,-0.24897 0.41846,0.25863 0.31162,-0.5774 -0.13026,-1.01928 -0.47723,-0.47722 -0.52345,-1.22842 -0.0756,-1.22842 0.19937,0 0.14755,-0.17373 -0.13656,-0.45785 -0.38028,-0.38027 -0.54679,-0.4023 -0.98274,-0.13005 -0.58867,0.36763 -0.7162,-0.006 -0.17467,-0.51214 0.19262,-0.17993 0.29784,-0.60113 0.23383,-0.93598 -0.064,-0.33486 0.0876,-0.9202 0.33699,-1.30077 0.47193,-0.72026 0.75372,-3.62754 0.32598,-3.36318 -0.13162,0.0814 -0.56395,-0.20754 -0.96074,-0.64197 -0.63528,-0.69554 -0.67175,-0.82518 -0.30542,-1.08557 0.33992,-0.24161 0.27082,-0.28434 -0.37774,-0.23358 -0.6488,0.0508 -0.77799,-0.0292 -0.70748,-0.43799 0.0736,-0.42658 -0.0319,-0.47648 -0.71735,-0.33939 -0.44198,0.0884 -0.86386,0.0632 -0.93749,-0.0559 -0.18053,-0.2921 1.89733,-0.8977 2.27635,-0.66345 0.16842,0.10409 0.2277,0.0684 0.13515,-0.0814 -0.0907,-0.14673 0.11019,-0.3921 0.44639,-0.54528 0.33619,-0.15319 0.81448,-0.73614 1.06285,-1.29547 0.24838,-0.55932 0.56489,-1.22369 0.70336,-1.47638 0.13847,-0.25268 0.25176,-1.11886 0.25176,-1.92484 0,-1.41657 0.0265,-1.4707 0.79375,-1.62416 0.64782,-0.12957 0.78991,-0.28645 0.77287,-0.85328 -0.0115,-0.382 -0.081,-0.54571 -0.15434,-0.36381 -0.0734,0.18191 -0.48072,0.33073 -0.90516,0.33073 -0.58624,0 -0.7717,-0.12284 -0.7717,-0.51115 0,-1.12961 -1.66169,-1.77146 -6.08542,-2.35056 -1.2195,-0.15964 -1.56585,-0.28199 -1.19062,-0.42059 0.93946,-0.34701 1.32439,-0.63076 1.25677,-0.92641 -0.0364,-0.15906 0.14221,-0.2986 0.39687,-0.31009 0.27934,-0.0126 0.33117,-0.074 0.13065,-0.15489 -0.18281,-0.0737 -0.26877,-0.23692 -0.19103,-0.36271 0.51631,-0.83541 -3.23809,-1.02758 -4.53491,-0.23213 -0.45374,0.27832 -0.97086,0.50603 -1.14915,0.50603 -0.1783,0 -1.29151,0.48776 -2.47379,1.08391 -1.284,0.64745 -2.18856,0.96707 -2.24633,0.79375 -0.0532,-0.15958 -0.26539,-0.29016 -0.47155,-0.29016 -1.03753,0 0.11893,-2.14675 1.47726,-2.74225 0.21828,-0.0957 0.75406,-0.40401 1.19063,-0.68515 0.43656,-0.28114 1.41882,-0.82958 2.18281,-1.21876 0.76398,-0.38918 1.38906,-0.85017 1.38906,-1.02442 0,-0.34117 1.62054,-1.20858 2.25794,-1.20858 0.21334,0 0.38789,0.13364 0.38789,0.29698 0,0.20403 0.12531,0.19298 0.40037,-0.0353 0.2202,-0.18275 0.36903,-0.48718 0.33073,-0.6765 -0.0383,-0.18933 0.0494,-0.34423 0.19495,-0.34423 0.14552,0 0.22959,0.17078 0.18683,0.37952 -0.10234,0.49961 0.58461,0.48774 1.00379,-0.0174 0.19886,-0.23961 0.22043,-0.39687 0.0545,-0.39687 -0.15122,0 -0.3451,0.14882 -0.43086,0.33073 -0.0858,0.1819 -0.0932,0.002 -0.0165,-0.39871 0.0767,-0.40119 0.0476,-0.71452 -0.0646,-0.69628 -0.64228,0.10446 -1.12998,-0.0796 -1.12998,-0.42637 0,-0.21828 -0.16585,-0.39687 -0.36857,-0.39687 -0.20271,0 -0.43477,-0.17253 -0.51569,-0.3834 -0.0957,-0.2495 -0.02,-0.33461 0.21697,-0.24369 0.26069,0.10004 0.32325,-0.0165 0.22025,-0.41035 -0.15843,-0.60584 -0.29814,-0.65648 -0.84894,-0.30773 -0.26022,0.16477 -0.55448,0.0149 -0.99219,-0.50526 -0.63908,-0.7595 -0.80373,-1.32457 -0.38597,-1.32457 0.12995,0 0.31031,-0.19295 0.40081,-0.42877 0.12596,-0.32825 0.0414,-0.39656 -0.3607,-0.29141 -0.41397,0.10826 -0.51288,0.0169 -0.46695,-0.43113 0.0484,-0.47228 -0.0984,-0.58141 -0.86777,-0.64483 -1.54926,-0.12772 -1.81427,-0.32425 -0.93085,-0.6903 0.73505,-0.30458 0.68083,-0.32198 -0.79375,-0.25477 -0.87048,0.0397 -1.99221,0.14653 -2.49274,0.23745 -0.7773,0.14119 -0.86333,0.109 -0.58974,-0.22065 0.26189,-0.31556 0.21071,-0.41923 -0.28057,-0.56838 -0.36537,-0.11091 -0.47061,-0.23614 -0.26851,-0.31949 0.1828,-0.0754 0.25719,-0.25874 0.1653,-0.40742 -0.10667,-0.1726 0.0482,-0.20201 0.42836,-0.0814 0.38329,0.12165 0.53534,0.0918 0.42677,-0.0839 -0.0928,-0.1501 0.0412,-0.32763 0.2976,-0.39453 0.32251,-0.0841 0.26233,-0.13233 -0.1952,-0.15636 -0.47733,-0.0251 -0.56158,-0.098 -0.30266,-0.2621 0.23037,-0.14597 -0.0345,-0.21704 -0.74006,-0.19854 -0.60438,0.0159 -0.9742,0.0704 -0.82183,0.12116 0.57055,0.19018 0.24888,0.50044 -0.49069,0.4733 -0.42226,-0.0155 -0.70501,-0.13022 -0.62833,-0.25496 0.20735,-0.33729 -1.08519,0.11681 -1.31186,0.46089 -0.10691,0.16228 -0.19621,0.19119 -0.19844,0.0642 -0.002,-0.12696 -0.18264,-0.0826 -0.40092,0.0985 -0.31996,0.26555 -0.39766,0.259 -0.40093,-0.0337 -0.003,-0.24177 -0.069,-0.26621 -0.19844,-0.0731 -0.10691,0.15949 -0.55091,0.37742 -0.98665,0.48429 -0.43575,0.10687 -0.93473,0.31253 -1.10884,0.45702 -0.62624,0.51974 -3.86738,2.07599 -4.32357,2.07599 -0.25643,0 -0.82541,0.32742 -1.26439,0.7276 -0.43899,0.40019 -0.9576,0.76675 -1.15246,0.81459 -0.19487,0.0478 -0.5329,0.23877 -0.75118,0.42429 -0.21828,0.18552 -0.75407,0.51207 -1.19063,0.72566 -1.63728,0.80107 -4.51326,2.42302 -4.9244,2.7772 -0.23457,0.20206 -0.77035,0.41222 -1.19063,0.46702 -0.42027,0.0548 -1.06179,0.17031 -1.42559,0.25668 -1.103463,0.26198 -3.175003,0.38111 -3.175003,0.18259 0,-0.10253 0.41695,-0.59053 0.926556,-1.08446 0.618905,-0.59987 0.838534,-0.98608 0.661459,-1.16316 -0.346002,-0.346 -0.338491,-0.68843 0.0151,-0.68843 0.15411,0 0.206614,0.11907 0.116677,0.26459 -0.08994,0.14552 -0.05112,0.26458 0.08625,0.26458 0.394268,0 1.146285,-1.30565 0.942205,-1.63585 -0.1059,-0.17135 -0.0661,-0.22504 0.0936,-0.12634 0.15276,0.0944 0.34306,0.001 0.42289,-0.20661 0.0798,-0.20804 0.003,-0.43609 -0.17071,-0.50676 -0.18771,-0.0764 -0.14524,-0.13697 0.10468,-0.14939 0.47679,-0.0237 1.03547,-1.07912 1.03303,-1.95156 -0.001,-0.51385 -0.0502,-0.48972 -0.41181,0.20377 -0.55311,1.06075 -0.74403,1.20144 -0.5482,0.40399 0.0996,-0.40574 -4.4e-4,-0.30345 -0.25886,0.26458 -0.23171,0.50933 -0.498369,0.98558 -0.592581,1.05834 -0.59345,0.45832 -1.391803,1.97381 -1.275031,2.42035 0.137871,0.52722 0.05372,0.59029 -1.145221,0.85833 -0.363803,0.0813 -1.078178,0.50771 -1.5875,0.94752 -0.509323,0.4398 -1.07487,0.79992 -1.256771,0.80026 -0.181901,3.4e-4 -0.33073,0.1058 -0.33073,0.23434 0,0.12855 -0.252862,0.29985 -0.561917,0.38067 -0.460486,0.12042 -0.529652,0.2755 -0.383173,0.85912 0.133864,0.53336 0.03403,0.86621 -0.397598,1.32566 -0.324536,0.34545 -0.508223,0.791 -0.420429,1.01979 0.09563,0.24921 -0.05281,0.51801 -0.383923,0.69521 -0.296909,0.1589 -0.477758,0.45068 -0.401886,0.6484 0.07587,0.19772 -0.0042,0.41732 -0.177916,0.48799 -0.208395,0.0848 -0.215426,0.1356 -0.02066,0.14939 0.428472,0.0303 0.03757,1.88635 -0.638684,3.03251 -0.940651,1.59429 -0.301815,2.80921 1.477154,2.80921 0.666972,0 0.934859,0.13237 1.033835,0.51086 0.07377,0.28208 0.287665,0.45173 0.477634,0.37883 0.189222,-0.0726 0.423162,-0.004 0.519865,0.15247 0.0967,0.15647 -0.01032,0.35592 -0.23782,0.44322 -0.795268,0.30517 -0.403916,0.63128 0.757579,0.63128 0.892968,0 1.199972,-0.11 1.292225,-0.46302 0.11113,-0.42525 0.123504,-0.42371 0.151692,0.0189 0.03671,0.57642 -0.737014,1.42618 -0.985506,1.08235 -0.09594,-0.13275 -0.531614,-0.24135 -0.968177,-0.24135 -0.569373,0 -0.867579,-0.16828 -1.054928,-0.59531 -0.242125,-0.55189 -0.547002,-0.69779 -1.392468,-0.6664 -0.181901,0.007 -0.330729,-0.13397 -0.330729,-0.31272 0,-0.17875 -0.327422,-0.47254 -0.727604,-0.65287 l -0.727604,-0.32785 0.621269,0.58446 c 0.478248,0.44991 0.541415,0.63381 0.274393,0.79884 -0.397149,0.24545 -0.376973,2.79374 0.03674,4.6398 0.263059,1.17382 0.131054,1.95601 -0.330106,1.95601 -0.146924,0 -0.211728,0.21187 -0.144009,0.47083 0.06772,0.25896 -0.02532,0.6095 -0.206756,0.77899 -0.181434,0.16948 -0.38761,0.46363 -0.458169,0.65365 -0.09421,0.25371 -0.284821,0.19523 -0.717587,-0.22019 -0.39811,-0.38215 -0.629529,-0.98303 -0.713297,-1.85208 -0.175601,-1.82179 -0.306374,-2.17435 -0.621614,-1.67587 -0.201993,0.3194 -0.247028,0.29823 -0.250351,-0.11766 -0.0022,-0.27891 -0.07258,-0.43859 -0.156343,-0.35483 -0.08376,0.0838 -0.570232,-0.25358 -1.081047,-0.74965 -0.510816,-0.49607 -1.037597,-0.90194 -1.170625,-0.90194 -0.133028,0 -0.21739,-0.0893 -0.18747,-0.19844 0.02992,-0.10914 -0.155173,-0.59205 -0.411317,-1.07312 -0.582735,-1.09447 -0.775514,-2.43114 -0.35142,-2.43666 0.207168,-0.003 0.218939,-0.0691 0.03515,-0.19844 -0.15197,-0.10691 -0.275168,-0.7897 -0.273773,-1.5173 0.0014,-0.72761 -0.0273,-1.91823 -0.06377,-2.64584 -0.100548,-2.00625 0.423333,-10.88294 0.757332,-12.83229 0.377949,-2.20586 1.00384,-3.83028 3.102177,-8.0513 2.401536,-4.83094 3.750311,-6.75054 7.077369,-10.07266 3.779309,-3.77368 3.862285,-3.84002 5.171365,-4.13415 0.61187,-0.13747 2.2575,-0.74229 3.65696,-1.34404 l 2.54448,-1.094081 6.35,-0.02115 c 7.111847,-0.02369 8.356057,0.160397 12.327907,1.823991 1.59652,0.66869 2.82148,1.43881 4.34084,2.72903 1.16417,0.9886 2.89057,2.23172 3.83646,2.76249 2.23822,1.25594 4.35479,3.37701 5.35198,5.36334 0.43833,0.87313 1.55162,2.68161 2.47398,4.01886 2.45678,3.56189 3.64027,6.10673 4.44637,9.56096 0.3846,1.64807 0.8849,3.35546 1.11178,3.7942 0.48644,0.94067 0.3319,1.54369 -0.39561,1.54369 -0.67856,0 -0.87373,0.34597 -0.66479,1.17846 0.0991,0.39463 0.35725,0.67362 0.62343,0.67362 1.12641,0 2.48404,2.70829 2.20868,4.40601 -0.0908,0.55987 -0.90797,2.54424 -1.81591,4.40971 -1.46405,3.00807 -1.62285,3.48696 -1.40377,4.23334 0.90353,3.07809 0.45949,9.35582 -1.01396,14.33532 -0.76725,2.5929 -1.28254,3.73284 -2.81063,6.21771 -2.77813,4.51762 -7.48476,9.62642 -12.36883,13.42572 -0.74191,0.57713 -6.4988,2.18616 -7.69361,2.15033 -0.63029,-0.0189 -3.11052,-0.1853 -5.51161,-0.36977 z m 10.31875,-2.93146 c 0,-0.0572 -0.1786,-0.10399 -0.39688,-0.10399 -0.21828,0 -0.39687,0.11533 -0.39687,0.25628 0,0.14095 0.17859,0.18775 0.39687,0.10399 0.21828,-0.0838 0.39688,-0.19909 0.39688,-0.25628 z m -17.72709,-2.07275 c 0,-0.27926 -0.50776,-0.39659 -0.65879,-0.15222 -0.0914,0.14789 0.0194,0.2689 0.2463,0.2689 0.22687,0 0.41249,-0.0525 0.41249,-0.11668 z m 18.78542,-1.35414 c 0,-0.22687 -0.11906,-0.33891 -0.26458,-0.24897 -0.14552,0.0899 -0.26459,0.27555 -0.26459,0.41249 0,0.13693 0.11907,0.24896 0.26459,0.24896 0.14552,0 0.26458,-0.18562 0.26458,-0.41248 z m 4.10104,-2.49793 c 0.0899,-0.14552 0.0374,-0.26459 -0.11667,-0.26459 -0.15411,0 -0.2802,0.11907 -0.2802,0.26459 0,0.14552 0.0525,0.26458 0.11667,0.26458 0.0642,0 0.19027,-0.11906 0.2802,-0.26458 z m 9.39271,-14.2875 c 0.34202,-0.22104 0.33504,-0.25704 -0.0505,-0.26053 -0.24607,-0.002 -0.52099,0.11501 -0.61093,0.26053 -0.20695,0.33485 0.14331,0.33485 0.66146,0 z m -0.79375,-2.38125 c 0,-0.14552 -0.0525,-0.26459 -0.11668,-0.26459 -0.0642,0 -0.19026,0.11907 -0.28019,0.26459 -0.0899,0.14552 -0.0374,0.26458 0.11667,0.26458 0.15411,0 0.2802,-0.11906 0.2802,-0.26458 z M 74.354311,118.08139 c 0.284763,-0.46076 -0.03956,-0.55833 -0.402448,-0.12108 -0.20869,0.25145 -0.228762,0.40327 -0.05332,0.40327 0.15475,0 0.359845,-0.12699 0.455766,-0.28219 z M 90.7476,99.18786 c 0.49119,-0.39827 0.46866,-0.3998 -0.31395,-0.0213 -0.46372,0.2243 -0.92457,0.53959 -1.02412,0.70067 -0.21938,0.35496 0.53445,-0.0278 1.33807,-0.6794 z m 16.80104,51.45489 c 0,-0.14553 0.11906,-0.26459 0.26458,-0.26459 0.14552,0 0.26459,0.11906 0.26459,0.26459 0,0.14552 -0.11907,0.26458 -0.26459,0.26458 -0.14552,0 -0.26458,-0.11906 -0.26458,-0.26458 z m 1.05833,-0.26459 c 0,-0.14552 0.11907,-0.26458 0.26459,-0.26458 0.14552,0 0.26458,0.11906 0.26458,0.26458 0,0.14552 -0.11906,0.26459 -0.26458,0.26459 -0.14552,0 -0.26459,-0.11907 -0.26459,-0.26459 z m 2.40214,-2.00642 c 0.0127,-0.30823 0.0754,-0.37092 0.15985,-0.15985 0.0764,0.19099 0.067,0.41919 -0.0209,0.50711 -0.0879,0.0879 -0.15046,-0.0683 -0.13897,-0.34726 z m 4.10241,-6.89454 c -0.14509,-0.3781 -0.10596,-0.38779 0.30242,-0.0749 0.25799,0.19768 0.51868,0.39312 0.57932,0.4343 0.0606,0.0412 -0.0755,0.0749 -0.30242,0.0749 -0.22697,0 -0.48766,-0.19543 -0.57932,-0.43429 z m 0.49266,-0.64709 c -0.0978,-0.1582 -0.0403,-0.4251 0.1277,-0.5931 0.23089,-0.2309 0.3631,-0.21221 0.54157,0.0766 0.25218,0.40804 0.12502,0.80417 -0.25814,0.80417 -0.12835,0 -0.31335,-0.12943 -0.41113,-0.28763 z m -2.49527,-0.0431 c 0.002,-0.0364 0.1688,-0.60193 0.3702,-1.25678 0.35098,-1.14121 0.37671,-1.16335 0.61999,-0.53351 l 0.25382,0.65712 0.18681,-0.5886 c 0.21797,-0.68677 0.0144,-1.12251 -0.52441,-1.12251 -0.2097,0 -0.38126,-0.11906 -0.38126,-0.26458 0,-0.34272 -1.13783,-0.34384 -1.48022,-10e-4 -0.14472,0.14472 -1.56752,0.32029 -3.16177,0.39016 -1.59425,0.0699 -3.67254,0.18455 -4.61843,0.25485 -5.44278,0.40454 -6.08542,0.41789 -6.08542,0.1264 0,-0.18669 -0.24971,-0.23548 -0.66791,-0.13052 -0.50106,0.12576 -0.81503,0.01 -1.25678,-0.46371 -0.32386,-0.34725 -0.85613,-0.71526 -1.18282,-0.81782 -0.4918,-0.15439 -0.69085,-0.0222 -1.15728,0.76828 -0.65736,1.11414 -0.74619,1.10588 -0.56965,-0.0529 0.13838,-0.90833 1.29032,-2.27534 1.76919,-2.0995 0.15792,0.058 0.69281,-0.0594 1.18864,-0.26095 0.49583,-0.20152 1.86197,-0.43365 3.03587,-0.51584 1.1739,-0.0822 2.20711,-0.1944 2.29601,-0.24935 0.0889,-0.055 1.22308,-0.11929 2.52038,-0.14297 1.2973,-0.0237 2.65638,-0.19331 3.02019,-0.37694 0.3638,-0.18363 1.19724,-0.42094 1.85208,-0.52736 0.65484,-0.10642 1.34233,-0.31606 1.52775,-0.46586 0.18542,-0.14981 0.41259,-0.19691 0.50482,-0.10468 0.25398,0.25398 0.89677,-0.37678 0.70318,-0.69002 -0.10994,-0.17789 0.0845,-0.20961 0.55739,-0.0909 0.4231,0.10619 0.87648,0.0576 1.0862,-0.11648 0.19799,-0.16432 0.48426,-0.22195 0.63615,-0.12807 0.1519,0.0939 0.27618,0.03 0.27618,-0.14191 0,-0.22453 0.11903,-0.21381 0.42248,0.038 0.35489,0.29454 0.46017,0.28328 0.65808,-0.0704 0.12958,-0.23154 0.53477,-0.49608 0.90043,-0.58785 0.36566,-0.0918 0.66484,-0.29979 0.66484,-0.46226 0,-0.16247 0.34835,0.10359 0.77412,0.59124 0.42576,0.48765 0.72148,0.9718 0.65714,1.0759 -0.0643,0.1041 0.006,0.26526 0.15624,0.35813 0.15027,0.0929 0.20352,0.28163 0.11833,0.41947 -0.0852,0.13784 -0.28413,0.17075 -0.44208,0.0731 -0.17283,-0.10681 -0.21094,-0.0541 -0.0957,0.13229 0.1053,0.17038 0.28984,0.24897 0.4101,0.17465 0.12026,-0.0743 0.26508,0.35165 0.32182,0.94662 0.10304,1.08057 0.10263,1.08111 -0.37551,0.49062 -0.26327,-0.32513 -0.7735,-0.6235 -1.13385,-0.66306 -0.56219,-0.0617 -0.65517,0.0362 -0.65517,0.69023 0,0.56876 0.1007,0.72351 0.39687,0.60985 0.25132,-0.0964 0.39688,0.004 0.39688,0.27289 0,0.23385 -0.1786,0.42518 -0.39688,0.42518 -0.51076,0 -0.50778,0.37233 0.006,0.79906 0.47729,0.39612 0.29104,0.65615 -0.46996,0.65615 -0.30142,0 -0.59948,0.15255 -0.66235,0.339 -0.0629,0.18645 -0.0139,0.32118 0.10892,0.2994 0.87316,-0.15489 1.41387,0.0681 1.41387,0.58309 0,0.42976 -0.12309,0.52783 -0.52917,0.42164 -0.29104,-0.0761 -0.52917,-0.0373 -0.52917,0.0862 0,0.12354 -0.25044,0.17639 -0.55653,0.11745 -0.38487,-0.0741 -0.59841,0.053 -0.69231,0.41206 -0.15362,0.58742 -0.60876,0.67248 -1.07949,0.20175 -0.24694,-0.24695 -0.3175,-0.21755 -0.3175,0.13229 0,0.24739 -0.17859,0.44979 -0.39687,0.44979 -0.21829,0 -0.39507,-0.0298 -0.39286,-0.0661 z m -6.20755,-3.90261 c 0.18969,0 0.5428,-0.1979 0.78468,-0.43978 0.30136,-0.30136 0.49689,-0.34739 0.6212,-0.14626 0.28912,0.46781 0.80604,-0.0273 0.99028,-0.94847 0.1938,-0.96897 0.15968,-0.97854 -1.59249,-0.447 -0.71435,0.21671 -1.93474,0.39401 -2.71198,0.39401 -1.23677,0 -1.41316,0.0661 -1.41316,0.52917 0,0.34281 0.17639,0.52916 0.50086,0.52916 0.27547,0 0.57496,0.19311 0.66553,0.42914 0.12391,0.32289 0.36837,0.38839 0.98742,0.26458 0.45252,-0.0905 0.97796,-0.16455 1.16766,-0.16455 z m -0.67564,-0.52917 c 0,-0.14552 0.11907,-0.26458 0.26459,-0.26458 0.14552,0 0.26458,0.11906 0.26458,0.26458 0,0.14553 -0.11906,0.26459 -0.26458,0.26459 -0.14552,0 -0.26459,-0.11906 -0.26459,-0.26459 z m 4.36563,-1.5875 c -0.0899,-0.14552 -0.0304,-0.26458 0.13229,-0.26458 0.1627,0 0.22544,-0.11386 0.13943,-0.25303 -0.21763,-0.35214 -0.93318,-0.035 -0.93318,0.41363 0,0.20271 0.18562,0.36857 0.41249,0.36857 0.22687,0 0.33891,-0.11906 0.24897,-0.26459 z m 12.56771,0.79375 c 0,-0.14552 0.11906,-0.26458 0.26458,-0.26458 0.14552,0 0.26458,0.11906 0.26458,0.26458 0,0.14553 -0.11906,0.26459 -0.26458,0.26459 -0.14552,0 -0.26458,-0.11906 -0.26458,-0.26459 z m -30.42709,-1.30127 c 0,-0.13362 0.0761,-0.44126 0.16912,-0.68365 0.1349,-0.35154 0.21436,-0.3693 0.39282,-0.0878 0.34763,0.5484 0.27181,1.01437 -0.16506,1.01437 -0.21828,0 -0.39688,-0.10932 -0.39688,-0.24294 z m 17.72709,-2.51957 c 0,-0.22687 0.11906,-0.41249 0.26458,-0.41249 0.14552,0 0.26458,0.11204 0.26458,0.24897 0,0.13693 -0.11906,0.32255 -0.26458,0.41249 -0.14552,0.0899 -0.26458,-0.0221 -0.26458,-0.24897 z m -6.08542,-0.42079 c 0,-0.14096 0.17859,-0.25628 0.39688,-0.25628 0.21828,0 0.39687,0.0468 0.39687,0.10398 0,0.0572 -0.17859,0.17252 -0.39687,0.25628 -0.21829,0.0838 -0.39688,0.037 -0.39688,-0.10398 z m 10.05417,-0.47986 c 0,-0.54921 -0.87455,-1.45951 -1.14366,-1.19041 -0.0961,0.0961 -0.0453,0.33055 0.11282,0.52107 0.22727,0.27385 0.12136,0.33437 -0.50569,0.28893 -0.43624,-0.0316 -0.75372,-0.12167 -0.70551,-0.20013 0.0482,-0.0785 -0.43526,-0.26398 -1.07439,-0.41226 -0.89499,-0.20765 -1.10179,-0.19702 -0.8999,0.0462 0.19828,0.23891 -0.0443,0.2952 -0.99557,0.23106 -0.69174,-0.0466 -1.41063,0.0421 -1.59754,0.19725 -0.49954,0.41458 -5.42347,0.42331 -5.56129,0.01 -0.1494,-0.4482 -0.85844,-0.41334 -0.85844,0.0422 0,0.20271 -0.18833,0.44084 -0.41851,0.52917 -0.64558,0.24773 -0.82476,0.17517 -0.30909,-0.12518 0.25466,-0.14833 0.46119,-0.47213 0.45897,-0.71956 -0.003,-0.37952 -0.0425,-0.38913 -0.24969,-0.0615 -0.206,0.3257 -0.33118,0.28976 -0.77566,-0.22273 -0.29151,-0.33612 -0.64191,-0.54197 -0.77867,-0.45745 -0.32558,0.20122 -0.91938,-0.52171 -0.77768,-0.9468 0.11065,-0.33196 0.46466,-0.38336 3.07708,-0.44679 1.14284,-0.0277 1.38787,-0.11128 1.26507,-0.43129 -0.22747,-0.59278 0.19293,-0.48034 0.99974,0.26739 0.39421,0.36534 0.7347,0.90256 0.75664,1.19382 0.0219,0.29126 0.16327,0.48348 0.31408,0.42715 0.1508,-0.0563 0.24441,-0.23637 0.20803,-0.40008 -0.0364,-0.16371 0.0529,-0.29765 0.19844,-0.29765 0.14552,0 0.26458,0.11906 0.26458,0.26458 0,0.14552 0.12609,0.26458 0.2802,0.26458 0.15411,0 0.19525,-0.13745 0.0914,-0.30546 -0.11939,-0.19319 -0.0723,-0.23348 0.12811,-0.10961 0.49271,0.30451 2.00857,-1.01354 2.31539,-2.01324 0.32166,-1.04809 0.0229,-1.94515 -0.89391,-2.68412 -0.32905,-0.26522 -0.59828,-0.71171 -0.59828,-0.99219 0,-0.28048 -0.14883,-0.51375 -0.33073,-0.51837 -0.18567,-0.005 -0.0986,-0.19211 0.19844,-0.42724 0.30587,-0.24209 0.3617,-0.36527 0.13229,-0.29192 -0.21828,0.0698 -0.60523,0.0197 -0.8599,-0.11124 -0.47334,-0.24345 -0.68337,0.14223 -0.23002,0.42241 0.12814,0.0792 0.28846,0.43418 0.35626,0.78886 0.11499,0.60155 0.0858,0.62033 -0.43399,0.27972 -0.35983,-0.23577 -0.69434,-0.28041 -0.94416,-0.12601 -0.32934,0.20354 -0.31911,0.26513 0.0687,0.41395 0.62491,0.2398 0.57144,0.49597 -0.1884,0.90263 -0.35421,0.18956 -0.78373,0.68197 -0.9545,1.09424 -0.17076,0.41227 -0.56557,0.82912 -0.87734,0.92633 -0.31177,0.0972 -0.65433,0.30953 -0.76124,0.47182 -0.10854,0.16475 -0.19618,-0.0133 -0.19844,-0.40314 -0.003,-0.50122 -0.13468,-0.68784 -0.46707,-0.66146 -0.32006,0.0254 -0.45654,-0.14705 -0.44202,-0.55856 0.0236,-0.66733 -0.35491,-0.8027 -0.58292,-0.20851 -0.0816,0.21274 -0.34587,0.44947 -0.58719,0.52606 -0.24132,0.0766 -0.59749,0.49784 -0.79148,0.93611 -0.38443,0.86848 -1.08469,1.07515 -1.13113,0.33384 -0.0159,-0.25466 -0.0615,-0.84997 -0.10133,-1.32292 -0.0398,-0.47294 0.007,-0.85989 0.10425,-0.85989 0.0971,0 0.38283,-0.34916 0.63492,-0.77591 0.36692,-0.62115 0.74842,-0.83613 1.91269,-1.07783 0.94646,-0.19649 1.40347,-0.41062 1.30864,-0.61316 -0.0802,-0.17117 -10e-4,-0.11574 0.17547,0.12318 0.29558,0.39978 0.40184,0.39238 1.33278,-0.0929 0.55637,-0.29 1.00219,-0.66407 0.9907,-0.83128 -0.0138,-0.20087 -0.0662,-0.1918 -0.15434,0.0267 -0.22965,0.56913 -0.61852,0.3612 -0.61852,-0.33073 0,-0.3638 -0.10792,-0.66146 -0.23982,-0.66146 -0.13189,0 -0.17754,-0.23812 -0.10143,-0.52916 0.0761,-0.29104 0.23241,-0.52917 0.34734,-0.52917 0.11492,0 0.15097,0.22171 0.0801,0.49268 -0.0733,0.28033 0.0336,0.55501 0.24805,0.6373 0.27165,0.10425 0.34619,-0.0159 0.26697,-0.43036 -0.062,-0.32444 0.11361,-0.83273 0.40307,-1.16647 0.56198,-0.64798 1.11434,-0.83458 0.586,-0.19798 -0.3531,0.42546 -0.18994,1.194 0.25349,1.194 0.15008,0 0.28228,-0.20836 0.29377,-0.46302 0.0125,-0.27661 0.0746,-0.32987 0.15434,-0.1323 0.0734,0.18191 0.29839,0.33073 0.49998,0.33073 0.23142,0 0.30497,-0.16039 0.19954,-0.43513 -0.10013,-0.26095 0.0161,-0.56898 0.29028,-0.76949 0.39516,-0.28895 0.40998,-0.41849 0.10914,-0.95393 -0.19147,-0.34076 -0.4474,-0.6923 -0.56875,-0.78119 -0.12134,-0.0889 -0.0247,-0.23681 0.21485,-0.32872 0.397,-0.15234 0.39896,-0.21922 0.0222,-0.75715 -0.2273,-0.32453 -0.41328,-0.80168 -0.41328,-1.06034 0,-0.40323 -0.24935,-0.4703 -1.74847,-0.4703 h -1.74848 l 0.17237,0.68677 c 0.0948,0.37772 0.0598,0.82421 -0.0777,0.99219 -0.13756,0.16798 -0.38916,0.8254 -0.55911,1.46093 -0.32273,1.20682 -0.41961,1.36237 -1.74692,2.80502 -0.59038,0.64169 -1.32327,1.03605 -2.67171,1.43764 -3.22165,0.95944 -5.00763,1.17725 -9.06039,1.10496 -2.232012,-0.0398 -0.89291,-0.27931 2.24555,-0.40162 3.17836,-0.12386 6.44769,-0.77441 8.04637,-1.60112 1.24833,-0.64554 2.11482,-2.18116 2.28852,-4.05576 0.1183,-1.27685 0.0604,-1.71016 -0.27305,-2.04362 -0.53817,-0.53816 -0.53517,-0.81497 0.0111,-1.02459 0.37913,-0.14549 0.38753,-0.10992 0.0661,0.28002 -0.33946,0.41188 -0.26735,0.43296 0.92555,0.27064 0.71154,-0.0968 2.46771,-0.17604 3.90261,-0.17604 1.56288,0 2.6089,-0.10608 2.6089,-0.26458 0,-0.14552 -0.56555,-0.27628 -1.25677,-0.29056 l -1.25677,-0.026 1.19062,-0.31741 c 0.65485,-0.17457 1.17277,-0.43077 1.15094,-0.56933 -0.0218,-0.13856 0.0764,-0.21918 0.21838,-0.17914 0.14875,0.042 0.18157,-0.1682 0.0775,-0.49615 -0.11932,-0.37593 -0.0838,-0.50916 0.10458,-0.39271 0.15684,0.0969 0.63993,-0.007 1.07354,-0.23145 0.92526,-0.47848 1.07924,-0.49889 1.07924,-0.14311 0,0.14552 -0.16447,0.26459 -0.36548,0.26459 -0.20101,0 -0.72957,0.3724 -1.17457,0.82756 -0.74571,0.76272 -0.77919,0.8732 -0.42734,1.41018 0.20996,0.32044 0.32691,0.63746 0.25988,0.70449 -0.067,0.067 0.10845,0.13922 0.38996,0.16042 0.29478,0.0222 0.74861,-0.29397 1.0702,-0.74561 0.30711,-0.43129 1.1251,-1.07134 1.81776,-1.42234 1.28005,-0.64865 4.99883,-1.42907 7.16084,-1.50276 l 1.19063,-0.0406 -1.19063,-0.20711 c -0.80093,-0.13932 -0.32464,-0.17021 1.45521,-0.0944 3.10208,0.1322 4.23003,0.40821 4.92021,1.20399 0.55139,0.63577 0.66508,1.29362 0.22355,1.29362 -0.15411,0 -0.20661,-0.11907 -0.11668,-0.26459 0.0899,-0.14552 -0.0221,-0.26458 -0.24897,-0.26458 -0.22687,0 -0.38272,-0.0893 -0.34634,-0.19844 0.14331,-0.42992 -0.38533,-0.32618 -1.06593,0.20917 -0.70043,0.55096 -0.70485,0.57218 -0.1967,0.94375 0.28591,0.20906 0.67827,0.31932 0.8719,0.24501 0.19364,-0.0743 0.28276,-0.023 0.19805,0.11411 -0.0847,0.13706 0.0579,0.4971 0.31699,0.80008 l 0.471,0.55087 0.18925,-0.60467 c 0.10408,-0.33257 0.15933,0.26552 0.12276,1.3291 -0.0366,1.06357 -0.18994,2.01607 -0.34083,2.11666 -0.1509,0.1006 -0.35413,0.39881 -0.45163,0.66269 -0.10266,0.27787 -0.30661,0.39985 -0.4846,0.28985 -0.19185,-0.11857 -0.23589,-0.0744 -0.11722,0.11767 0.12212,0.19759 -0.24961,0.49608 -1.03939,0.83463 -1.40905,0.60399 -1.45021,0.61203 -1.45021,0.28346 0,-0.13396 0.35582,-0.32171 0.79071,-0.41723 0.4349,-0.0955 0.85842,-0.28321 0.94117,-0.4171 0.0848,-0.13723 -0.15222,-0.12835 -0.54336,0.0204 -1.06807,0.40607 -1.98227,0.33084 -1.98227,-0.16312 0,-0.32261 0.19144,-0.39881 0.7836,-0.3119 0.95641,0.14037 1.35031,-0.5033 0.44677,-0.73007 -0.33167,-0.0833 -0.77395,-0.11423 -0.98285,-0.0688 -0.23093,0.0502 -0.37981,-0.12492 -0.37981,-0.44665 0,-0.29105 -0.0963,-0.678 -0.21406,-0.8599 -0.11773,-0.1819 -0.14046,-0.44979 -0.0505,-0.59531 0.0899,-0.14552 -0.0816,-0.26459 -0.38126,-0.26459 -0.43011,0 -0.54478,-0.16873 -0.54478,-0.80164 v -0.80164 l -1.85208,0.10001 c -1.01865,0.055 -1.85209,0.0223 -1.85209,-0.0727 0,-0.095 -0.80367,-0.15218 -1.78593,-0.12709 -2.23379,0.0571 -2.24852,0.0598 -2.05052,0.38015 0.0899,0.14552 0.0445,0.26458 -0.10107,0.26458 -0.14552,0 -0.33816,-0.11906 -0.4281,-0.26458 -0.26125,-0.42271 -1.90726,-0.31802 -2.08006,0.13229 -0.0838,0.21828 -0.007,0.3987 0.17013,0.40093 0.21929,0.003 0.2043,0.0788 -0.0468,0.23788 -0.20311,0.1286 -0.29614,0.42443 -0.20675,0.6574 0.0894,0.23297 0.051,0.42358 -0.0854,0.42358 -0.13639,0 -0.17195,0.19813 -0.079,0.44028 0.1136,0.29604 0.0675,0.3776 -0.1406,0.24897 -0.3632,-0.22447 -0.39918,0.0825 -0.0705,0.60142 0.12702,0.20054 0.36332,0.28281 0.52511,0.18282 0.17838,-0.11024 0.29417,0.0265 0.29417,0.34736 0,0.89842 -0.48376,0.8853 -0.9685,-0.0263 -0.54928,-1.03291 -0.79059,-2.46103 -0.37215,-2.20242 0.15527,0.096 0.28231,0.0484 0.28231,-0.10572 0,-0.15411 -0.12609,-0.2802 -0.28019,-0.2802 -0.15411,0 -0.21433,-0.10659 -0.13382,-0.23686 0.0805,-0.13027 -0.0447,-0.31019 -0.27825,-0.39981 -0.35064,-0.13455 -0.40164,-0.0126 -0.29263,0.69988 0.40765,2.66421 1.55011,4.49904 3.03309,4.87124 0.63711,0.15991 0.65688,0.19743 0.19112,0.36263 -0.43816,0.15542 -0.38486,0.21415 0.34037,0.37504 0.47294,0.10492 0.8599,0.28371 0.8599,0.39731 0,0.1136 0.41752,0.64925 0.92783,1.19034 0.5103,0.54108 1.04231,1.19769 1.18223,1.45914 0.21263,0.3973 0.14796,0.47536 -0.39384,0.47536 -0.35653,0 -0.58385,-0.10418 -0.50516,-0.23151 0.0787,-0.12733 0.017,-0.23151 -0.13711,-0.23151 -0.15411,0 -0.2802,0.18608 -0.2802,0.41351 0,0.23537 0.19947,0.39321 0.46302,0.3664 0.80567,-0.082 1.12448,0.005 1.12448,0.30673 0,0.16179 -0.19266,0.21896 -0.43041,0.12773 -0.23673,-0.0908 -0.59392,-0.0295 -0.79375,0.13638 -0.19984,0.16585 -0.36605,0.19767 -0.36937,0.0707 -0.003,-0.12696 -0.20146,0.16579 -0.44033,0.65056 l -0.43431,0.8814 1.16794,1.02555 c 0.64236,0.56405 1.01911,1.03063 0.83721,1.03683 -0.1819,0.006 -0.33073,-0.11481 -0.33073,-0.26891 0,-0.15411 -0.12485,-0.20304 -0.27743,-0.10874 -0.1921,0.11872 -0.18868,0.2784 0.0111,0.51914 0.426,0.51329 0.80602,1.98646 0.51243,1.98646 -0.13536,0 -0.24611,-0.21967 -0.24611,-0.48816 z m -3.43959,-10.09517 c 0,-0.14552 -0.11906,-0.26459 -0.26458,-0.26459 -0.14552,0 -0.26458,0.11907 -0.26458,0.26459 0,0.14552 0.11906,0.26458 0.26458,0.26458 0.14552,0 0.26458,-0.11906 0.26458,-0.26458 z m 14.69526,-3.45719 c 0.27148,-0.43926 0.0278,-0.50017 -0.35204,-0.088 -0.18764,0.2036 -0.22443,0.37019 -0.0818,0.37019 0.14267,0 0.33788,-0.12699 0.4338,-0.28219 z m -2.78901,-0.24698 c 0,-0.14552 -0.24515,-0.26458 -0.54478,-0.26458 -0.29963,0 -0.47119,0.11906 -0.38126,0.26458 0.0899,0.14552 0.33509,0.26458 0.54478,0.26458 0.2097,0 0.38126,-0.11906 0.38126,-0.26458 z m 2.97682,-1.00234 c -0.077,-0.20072 -0.21415,-0.26567 -0.30474,-0.14432 -0.0906,0.12134 -0.26606,0.30353 -0.38996,0.40487 -0.12389,0.10133 0.0132,0.16628 0.30474,0.14432 0.3333,-0.0251 0.47803,-0.17537 0.38996,-0.40487 z m -11.44348,-2.83412 c 0,-0.22048 -0.23519,-0.39687 -0.52917,-0.39687 -0.29398,0 -0.52917,0.17639 -0.52917,0.39687 0,0.22049 0.23519,0.39688 0.52917,0.39688 0.29398,0 0.52917,-0.17639 0.52917,-0.39688 z m 5.04382,-0.28475 c 0.28684,-0.34562 0.28106,-0.4582 -0.0337,-0.6574 -0.48922,-0.30957 -0.77674,-0.31161 -0.77674,-0.006 0,0.13362 -0.0723,0.43128 -0.1606,0.66146 -0.21252,0.55382 0.51177,0.55492 0.97109,10e-4 z m -3.59991,-0.0938 c 0.0837,-0.13547 0.0312,-0.32109 -0.11668,-0.41249 -0.14789,-0.0914 -0.2689,0.0194 -0.2689,0.2463 0,0.46475 0.15877,0.53318 0.38558,0.16619 z m 1.20192,-0.3141 c 0,-0.14552 -0.11906,-0.191 -0.26458,-0.10106 -0.14552,0.0899 -0.26459,0.28259 -0.26459,0.42811 0,0.14552 0.11907,0.191 0.26459,0.10106 0.14552,-0.0899 0.26458,-0.28259 0.26458,-0.42811 z m -2.77812,-0.49793 c 0.0899,-0.14552 0.0374,-0.26459 -0.11668,-0.26459 -0.15411,0 -0.2802,0.11907 -0.2802,0.26459 0,0.14552 0.0525,0.26458 0.11668,0.26458 0.0642,0 0.19026,-0.11906 0.2802,-0.26458 z M 94.3555,130.3277 c -0.0229,-0.5519 0.10801,-0.92347 0.35933,-1.01991 0.21744,-0.0834 0.33456,-0.25007 0.26027,-0.37029 -0.0743,-0.12022 -0.0276,-0.285 0.10373,-0.36618 0.26799,-0.16562 0.61305,0.87523 0.40289,1.21529 -0.0743,0.12026 -0.29843,0.21866 -0.498,0.21866 -0.19957,0 -0.41446,0.26789 -0.47752,0.59532 -0.0821,0.42615 -0.1249,0.34861 -0.1507,-0.27289 z m 4.46189,-0.32243 c 0,-0.14552 0.11906,-0.26458 0.26458,-0.26458 0.14552,0 0.26459,0.11906 0.26459,0.26458 0,0.14552 -0.11907,0.26459 -0.26459,0.26459 -0.14552,0 -0.26458,-0.11907 -0.26458,-0.26459 z m 16.40417,-0.51355 c 0,-0.13693 0.11906,-0.32255 0.26458,-0.41249 0.14552,-0.0899 0.26458,0.0221 0.26458,0.24897 0,0.22687 -0.11906,0.41249 -0.26458,0.41249 -0.14552,0 -0.26458,-0.11203 -0.26458,-0.24897 z m 0.30404,-3.08579 c -0.48222,-0.54535 -0.17183,-0.80415 0.34482,-0.28751 0.22521,0.22521 0.40947,0.47751 0.40947,0.56066 0,0.27782 -0.39293,0.13552 -0.75429,-0.27315 z m 9.48554,-0.63399 c 0,-0.34102 0.13399,-0.5286 0.33073,-0.46302 0.1819,0.0606 0.33073,0.26899 0.33073,0.46302 0,0.19403 -0.14883,0.40239 -0.33073,0.46302 -0.19674,0.0656 -0.33073,-0.122 -0.33073,-0.46302 z m -39.819792,-3.81275 c -0.835733,-0.37109 -2.122915,-1.69315 -1.882531,-1.93354 0.07755,-0.0775 0.449786,0.22599 0.827201,0.67452 0.41209,0.48974 1.18271,0.96763 1.929104,1.19631 0.871368,0.26696 1.045168,0.38592 0.581435,0.39797 -0.363802,0.009 -1.018646,-0.14141 -1.455209,-0.33526 z m 15.478122,-0.55287 c 0,-0.21829 0.11907,-0.39688 0.26459,-0.39688 0.14552,0 0.26458,0.17859 0.26458,0.39688 0,0.21828 -0.11906,0.39687 -0.26458,0.39687 -0.14552,0 -0.26459,-0.17859 -0.26459,-0.39687 z m 14.23789,-0.31304 c 0.191,-0.0764 0.4192,-0.067 0.50712,0.0209 0.0879,0.0879 -0.0683,0.15045 -0.34726,0.13897 -0.30823,-0.0127 -0.37092,-0.0754 -0.15986,-0.15986 z m -28.128512,-0.34842 c 0.08994,-0.14552 0.216022,-0.26459 0.280202,-0.26459 0.0642,0 0.11667,0.11907 0.11667,0.26459 0,0.14552 -0.12609,0.26458 -0.28019,0.26458 -0.154114,0 -0.206619,-0.11906 -0.116682,-0.26458 z m 25.747832,0.0359 c 0.32209,-0.20425 1.63654,-0.10206 1.63654,0.12722 0,0.0558 -0.44648,0.0996 -0.99218,0.0974 -0.63245,-0.003 -0.86608,-0.084 -0.64436,-0.22462 z M 78.356279,119.5101 c -0.09701,-0.097 -0.172769,-0.3649 -0.168344,-0.59531 0.0066,-0.34404 0.05824,-0.33261 0.288836,0.0639 0.284897,0.48993 0.202302,0.85417 -0.120492,0.53137 z m 4.586111,-0.60174 c 0,-0.29963 0.119062,-0.54478 0.264583,-0.54478 0.145521,0 0.264584,0.17156 0.264584,0.38126 0,0.20969 -0.119063,0.45484 -0.264584,0.54478 -0.145521,0.0899 -0.264583,-0.0816 -0.264583,-0.38126 z m 3.770312,0.24782 c -0.327421,-0.13551 -0.595312,-0.36928 -0.595312,-0.51949 0,-0.15021 -0.127567,-0.27311 -0.283482,-0.27311 -0.481658,0 -0.966035,-0.65099 -1.167761,-1.56945 -0.135133,-0.61525 -0.105197,-0.82384 0.100034,-0.697 0.161081,0.0996 0.292876,0.0549 0.292876,-0.0992 0,-0.15411 0.178593,-0.2802 0.396875,-0.2802 0.218281,0 0.396875,-0.10791 0.396875,-0.23981 0,-0.1319 0.220375,-0.18218 0.489723,-0.11175 0.269348,0.0704 0.6563,-0.0307 0.8599,-0.22477 0.20359,-0.19405 0.70537,-0.36978 1.11507,-0.3905 0.4097,-0.0207 0.92454,-0.25814 1.1441,-0.52761 0.21956,-0.26946 0.31777,-0.33133 0.21824,-0.13748 -0.14626,0.2849 0.19232,0.32091 1.76632,0.18788 1.071,-0.0905 2.89977,-0.18959 4.06394,-0.22016 1.85094,-0.0486 2.18753,0.0153 2.68118,0.50892 0.99639,0.9964 0.57443,1.8034 -1.3187,2.52203 -1.91081,0.72534 -2.15623,0.75046 -2.15623,0.22075 0,-0.58353 -1.56601,-0.64907 -3.43862,-0.1439 -0.87366,0.23568 -1.88612,0.39424 -2.24992,0.35235 -0.49753,-0.0573 -0.65198,0.0408 -0.62322,0.39584 0.0277,0.3418 -0.0939,0.43006 -0.44075,0.31997 -0.26345,-0.0836 -0.54702,-0.042 -0.63016,0.0926 -0.084,0.13596 0.73732,0.32783 1.8495,0.43205 1.10036,0.10312 1.94841,0.23972 1.88456,0.30357 -0.25053,0.25053 -3.79408,0.33068 -4.355038,0.0985 z m 3.108858,-2.90927 c 0,-0.14552 -0.12609,-0.26458 -0.2802,-0.26458 -0.15411,0 -0.20662,0.11906 -0.11668,0.26458 0.0899,0.14552 0.21603,0.26458 0.2802,0.26458 0.0642,0 0.11668,-0.11906 0.11668,-0.26458 z m 4.89479,-0.79375 c 0.0899,-0.14552 -0.0151,-0.26458 -0.23336,-0.26458 -0.21828,0 -0.47045,0.11906 -0.56039,0.26458 -0.0899,0.14552 0.0151,0.26458 0.23335,0.26458 0.21828,0 0.47046,-0.11906 0.5604,-0.26458 z m 7.54062,3.7354 c 0,-0.14552 0.11907,-0.33817 0.26459,-0.42811 0.14552,-0.0899 0.26458,-0.0445 0.26458,0.10106 0,0.14552 -0.11906,0.33817 -0.26458,0.42811 -0.14552,0.0899 -0.26459,0.0445 -0.26459,-0.10106 z m -3.57187,-0.82498 c 0.0899,-0.14552 0.21602,-0.26459 0.2802,-0.26459 0.0642,0 0.11667,0.11907 0.11667,0.26459 0,0.14552 -0.12609,0.26458 -0.28019,0.26458 -0.15411,0 -0.20662,-0.11906 -0.11668,-0.26458 z m 1.11668,-1.12448 c -0.0649,-0.1819 0.053,-0.66922 0.26205,-1.08292 0.20904,-0.41371 0.29547,-0.83043 0.19206,-0.92605 -0.10342,-0.0956 -0.23555,-0.0419 -0.29364,0.11936 -0.22126,0.61429 -0.84496,1.28551 -1.02615,1.10433 -0.10402,-0.10403 0.17827,-0.60759 0.62733,-1.11903 0.96931,-1.10398 1.21845,-0.86708 0.97207,0.92431 -0.17321,1.25941 -0.48525,1.67619 -0.73372,0.98 z m 16.80884,-1.1817 c 0.40018,-0.0606 1.05503,-0.0606 1.45521,0 0.40018,0.0606 0.0728,0.11022 -0.72761,0.11022 -0.80036,0 -1.12778,-0.0496 -0.7276,-0.11022 z m -34.792709,-1.30863 c 0.181901,-0.0734 0.479557,-0.0734 0.661458,0 0.181901,0.0734 0.03307,0.13345 -0.330729,0.13345 -0.363802,0 -0.51263,-0.0601 -0.330729,-0.13345 z m -0.556005,-1.13569 c -0.09738,-0.48953 0.04858,-0.8455 0.534443,-1.30338 0.383963,-0.36184 0.554949,-0.70004 0.401788,-0.7947 -0.24525,-0.15157 0.777748,-1.61809 1.128731,-1.61809 0.0799,0 0.591629,-0.45861 1.13717,-1.01914 1.399865,-1.43832 2.578272,-2.00459 3.466462,-1.66577 0.38524,0.14696 0.93856,0.25417 1.2296,0.23826 1.54942,-0.0847 2.79702,0.0853 2.62831,0.35833 -0.12518,0.20255 0.0129,0.22923 0.44741,0.0865 0.89885,-0.2953 1.70176,-0.20063 3.80345,0.44844 1.71204,0.52873 3.07671,1.28884 2.31395,1.28884 -0.17213,0 -0.24794,0.16946 -0.16846,0.37658 0.0851,0.22178 -0.10622,0.51077 -0.46543,0.70301 -0.58841,0.31491 -0.59147,0.33364 -0.0867,0.53086 0.37852,0.14789 0.19392,0.21473 -0.66736,0.24163 -0.77118,0.0241 -1.02272,0.10345 -0.71402,0.22526 0.26213,0.10344 -0.88681,0.18437 -2.55321,0.17984 -1.6664,-0.005 -2.97517,-0.0975 -2.90839,-0.20666 0.23513,-0.38425 -1.01111,-0.19326 -1.42236,0.21798 -0.33009,0.3301 -0.46002,0.34588 -0.62676,0.0761 -0.17067,-0.27616 -0.51389,-0.27764 -1.81999,-0.008 -0.88531,0.18286 -1.713556,0.26826 -1.840546,0.18977 -0.12699,-0.0785 -0.630145,0.0307 -1.118122,0.24254 -0.532828,0.23136 -0.69604,0.38938 -0.408595,0.3956 0.26325,0.006 0.4031,0.13258 0.310778,0.28196 -0.09232,0.14938 -0.364415,0.23867 -0.60465,0.19843 -0.283293,-0.0474 -0.438998,0.1128 -0.443069,0.45601 -0.0047,0.39254 -0.188846,0.53227 -0.713387,0.54117 -0.550603,0.009 -0.736762,-0.13705 -0.841083,-0.66146 z m 9.088814,-2.38944 c 1.38245,-0.14258 2.80128,-0.26129 3.15295,-0.26381 1.38495,-0.01 0.23385,-0.3063 -1.60287,-0.41269 -1.07082,-0.062 -2.3339,-0.17956 -2.80685,-0.2612 -0.80317,-0.13863 -0.98409,6.7e-4 -0.90429,0.69626 0.0101,0.0876 -0.27351,0.10348 -0.63012,0.0353 -0.35662,-0.0682 -0.6484,0.001 -0.6484,0.15391 0,0.15282 -0.267891,0.32886 -0.595313,0.3912 -0.665583,0.12674 0.331326,0.043 4.034893,-0.33897 z m -6.597809,2.87285 c -0.01906,-0.4894 0.701824,-1.18793 0.959762,-0.92999 0.0935,0.0935 0.02725,0.16999 -0.147212,0.16999 -0.174463,0 -0.424885,0.26789 -0.556493,0.59532 -0.161929,0.40285 -0.244708,0.4561 -0.256057,0.16468 z m 25.295769,-0.60628 c -0.0792,-0.20649 0.10387,-0.65298 0.40692,-0.99218 l 0.55098,-0.61674 -0.16702,0.66145 c -0.0919,0.36381 -0.16865,0.81029 -0.17064,0.99219 -0.005,0.45051 -0.4423,0.41898 -0.62024,-0.0447 z m 17.02079,-0.15372 c -0.33916,-0.21918 -0.32955,-0.25707 0.0661,-0.26053 0.25466,-0.002 0.46302,0.11501 0.46302,0.26053 0,0.32269 -0.0298,0.32269 -0.52917,0 z m -41.804163,-0.79375 c 0.218281,-0.14106 0.515937,-0.25648 0.661458,-0.25648 0.145521,0 0.08599,0.11542 -0.132292,0.25648 -0.218281,0.14107 -0.515937,0.25648 -0.661458,0.25648 -0.145521,0 -0.08599,-0.11541 0.132292,-0.25648 z M 87.12611,112.362 c 0.191,-0.0764 0.4192,-0.067 0.50712,0.0209 0.0879,0.0879 -0.0683,0.15045 -0.34726,0.13897 -0.30823,-0.0127 -0.37092,-0.0754 -0.15986,-0.15986 z m 24.39128,-1.24323 c 0,-0.50528 2.1677,-0.96835 4.3125,-0.92125 0.90235,0.0198 1.34297,0.0787 0.97917,0.13076 -2.61638,0.37469 -4.43365,0.72559 -4.82865,0.93236 -0.33969,0.17783 -0.46302,0.14004 -0.46302,-0.14187 z m 7.29799,-9.38843 c -0.11398,-0.18442 -0.13577,-0.40676 -0.0484,-0.49409 0.23679,-0.23679 0.49497,0.11147 0.36708,0.49515 -0.0896,0.26887 -0.15194,0.26866 -0.31864,-10e-4 z"
       id="path1" /></g></svg>
